# xmcd
#
# Track frame offsets:
#	150
#	22450
#	41088
#	66850
#	87713
#	109313
#	125075
#	144725
#
# Disc length: 2188 seconds
#
# Revision: 0
# Processed by: cddbd v1.5.2PL0 Copyright (c) Steve Scherf et al.
# Submitted via: audiograbber 1.83.01
#
DISCID=83088a08
DTITLE=zucchero fornaciari - basi musicali - basi musicali in tonalità original
DTITLE=e
DYEAR=1994
DGENRE=
TTITLE0=con le mani - zucchero fornaciariTraccia  1
TTITLE1=ridammi il sole - zucchero fornaciariTraccia  2
TTITLE2=diamante - zucchero fornaciariTraccia  3
TTITLE3=pippo - zucchero fornaciariTraccia  4
TTITLE4=overdose d'amore - zucchero fornaciariTraccia  5
TTITLE5=donne - zucchero fornaciariTraccia  6
TTITLE6=miserere - zucchero fornaciariTraccia  7
TTITLE7=senza una donna - zucchero fornaciariTraccia  8
EXTD=
EXTT0=
EXTT1=
EXTT2=
EXTT3=
EXTT4=
EXTT5=
EXTT6=
EXTT7=
PLAYORDER=
